<?xml version="1.0" encoding="utf-8"?>
<!-- Generator: Adobe Illustrator 21.0.0, SVG Export Plug-In . SVG Version: 6.00 Build 0)  -->
<svg version="1.1" id="Livello_1" xmlns="http://www.w3.org/2000/svg" xmlns:xlink="http://www.w3.org/1999/xlink" x="0px" y="0px"
	 viewBox="0 0 841.9 162" style="enable-background:new 0 0 841.9 162;" xml:space="preserve">
<style type="text/css">
	.st0{fill-rule:evenodd;clip-rule:evenodd;fill:#829ED2;}
	.st1{fill-rule:evenodd;clip-rule:evenodd;fill:#BFD9F3;}
	.st2{opacity:0.23;fill-rule:evenodd;clip-rule:evenodd;fill:#BFD9F3;}
	.st3{fill:#BFD9F3;}
</style>
<rect x="0.4" class="st0" width="841.6" height="162.2"/>
<path class="st1" d="M102.3,94.9h4.6v4.6h-4.6V94.9z M93,94.9h4.7v4.6H93V94.9z M83.9,94.9h4.4v4.6h-4.4V94.9z M74.6,94.9h4.6v4.6
	h-4.6V94.9z M65.4,94.9H70v4.6h-4.6V94.9z M56.2,94.9h4.6v4.6h-4.6V94.9z M97.7,90.4h4.6v4.4h-4.6V90.4z M88.4,90.4H93v4.4h-4.6
	V90.4z M79.3,90.4h4.6v4.4h-4.6V90.4z M70,90.4h4.6v4.4H70V90.4z M60.8,90.4h4.6v4.4h-4.6V90.4z M93,76.5h9.3v4.6H93V76.5z
	 M60.8,71.9H70v4.6h-9.2V71.9z M65.4,44.2H70v9.2h23v-9.2h4.8v9.1h4.6V58h4.6v9.2h4.6V81h4.6v4.6h4.6v9.2h-4.6v-4.4h-4.6v13.8h-4.6
	v4.5h-4.6v4.6h4.6v4.6h-4.6v-4.4H93v4.4h-4.6v-4.6H93v-4.6H70v4.5h4.6v4.6H70v-4.4h-9.2v4.4h-4.6v-4.6h4.6v-4.6h-4.6v-4.5h-4.6V90.4
	h-4.6v4.4h-4.6v-9.2h4.4v-4.6h4.7V67.3h4.6v-9.2h4.6v-4.7h4.6V44.2z"/>
<path class="st2" d="M757.2,137.5l13.8,2.8l-2.8,13.8l-13.8-2.8L757.2,137.5z M728.9,131.7l14.2,2.9l-2.8,13.8l-14.2-2.9
	L728.9,131.7z M701.4,126l13.4,2.8l-2.8,13.8l-13.4-2.8L701.4,126z M673.1,120.2l13.8,2.8l-2.8,13.8l-13.8-2.8L673.1,120.2z
	 M645.2,114.5l13.8,2.8l-2.8,13.8l-13.8-2.8L645.2,114.5z M617.3,108.8l13.8,2.8l-2.8,13.8l-13.8-2.8L617.3,108.8z M746,121.1
	l13.8,2.8l-2.8,13.4l-13.8-2.8L746,121.1z M717.7,115.2l13.8,2.8l-2.8,13.4l-13.8-2.8L717.7,115.2z M690.2,109.6l13.8,2.8l-2.8,13.4
	l-13.8-2.8L690.2,109.6z M661.9,103.8l13.8,2.8l-2.8,13.4l-13.8-2.8L661.9,103.8z M634,98.1l13.8,2.8l-2.8,13.4l-13.8-2.8L634,98.1z
	 M740.3,75.9l28.2,5.8l-2.8,13.8l-28.2-5.8L740.3,75.9z M645.5,41.9l27.8,5.7l-2.8,13.8l-27.8-5.7L645.5,41.9z M676.7-39.4l13.9,2.8
	l-5.7,27.8l69.7,14.3l5.7-27.8l14.4,3L769,8.4l13.9,2.9L780,25.6l13.9,2.9l-5.7,27.9l13.9,2.9l-8.6,41.8l13.9,2.9l-2.9,13.9
	l13.9,2.9l-5.7,28l-13.8-2.8l2.8-13.5l-13.9-2.8l-8.6,41.7l-13.9-2.9l-2.8,13.6l-14-2.9l-2.8,13.9l13.8,2.8l-2.9,14l-13.8-2.8
	l2.8-13.5l-28.2-5.8l-2.8,13.5l-14-2.9l2.8-13.8l13.8,2.8l2.9-14l-69.7-14.3l-2.8,13.8l13.8,2.8l-2.9,14l-13.8-2.8l2.8-13.5
	l-27.8-5.7l-2.8,13.5l-14-2.9l2.8-13.8l13.8,2.8l2.8-13.9l-13.9-2.8l2.8-13.6l-13.9-2.9l8.6-41.9l-13.9-2.8l-2.8,13.5l-14-2.9
	l5.7-27.8l13.4,2.7l2.9-13.9l14.3,2.9l8.6-41.8l13.9,2.9l5.7-27.9L653.9,0l2.9-14.3l14.1,2.9L676.7-39.4z"/>
<g>
	<path class="st3" d="M176.6,53c3.5,0,6.5,0.3,9,1c2.5,0.7,4.6,1.7,6.2,2.9c1.6,1.3,2.8,2.8,3.6,4.6c0.8,1.8,1.1,3.9,1.1,6.2
		c0,1.4-0.2,2.7-0.7,4c-0.4,1.3-1.1,2.5-2,3.6s-2,2.1-3.3,3c-1.3,0.9-2.9,1.6-4.7,2.2c4.2,0.8,7.3,2.3,9.4,4.4
		c2.1,2.2,3.1,5,3.1,8.6c0,2.4-0.4,4.6-1.3,6.6c-0.9,2-2.2,3.7-3.9,5.1c-1.7,1.4-3.8,2.5-6.3,3.3c-2.5,0.8-5.3,1.2-8.5,1.2h-20V53
		H176.6z M166.2,59v19.3h10.1c2.2,0,4-0.2,5.6-0.7c1.6-0.5,2.9-1.1,4-2c1-0.8,1.8-1.9,2.3-3.1c0.5-1.2,0.8-2.5,0.8-3.9
		c0-3.3-1-5.8-3-7.3c-2-1.5-5.1-2.3-9.3-2.3H166.2z M178.4,103.5c2.2,0,4.1-0.2,5.6-0.8c1.6-0.5,2.9-1.2,3.9-2.1
		c1-0.9,1.8-2,2.2-3.2c0.5-1.3,0.7-2.6,0.7-4.1c0-2.9-1-5.2-3.1-6.9c-2.1-1.7-5.2-2.5-9.4-2.5h-12.2v19.7H178.4z"/>
	<path class="st3" d="M214.6,77.6c1.3-2.7,2.8-4.9,4.7-6.4s4.1-2.3,6.8-2.3c0.8,0,1.7,0.1,2.4,0.3c0.8,0.2,1.5,0.5,2.1,0.9l-0.5,5.3
		c-0.2,0.7-0.6,1-1.2,1c-0.4,0-0.9-0.1-1.6-0.2c-0.7-0.2-1.5-0.2-2.4-0.2c-1.3,0-2.4,0.2-3.4,0.6c-1,0.4-1.9,0.9-2.6,1.6
		c-0.8,0.7-1.5,1.6-2.1,2.7c-0.6,1.1-1.2,2.3-1.7,3.7v25.3h-7.1v-40h4c0.8,0,1.3,0.1,1.6,0.4c0.3,0.3,0.5,0.8,0.6,1.5L214.6,77.6z"
		/>
	<path class="st3" d="M270.3,69.6v40h-4.2c-1,0-1.6-0.5-1.9-1.5l-0.6-4.3c-1.7,1.9-3.7,3.5-5.8,4.6c-2.2,1.2-4.6,1.8-7.4,1.8
		c-2.2,0-4.1-0.4-5.8-1.1c-1.7-0.7-3.1-1.7-4.2-3.1c-1.1-1.3-2-2.9-2.5-4.8c-0.6-1.9-0.8-3.9-0.8-6.2V69.6h7v25.5c0,3,0.7,5.4,2.1,7
		c1.4,1.7,3.5,2.5,6.3,2.5c2.1,0,4-0.5,5.8-1.5c1.8-1,3.5-2.4,5-4.1V69.6H270.3z"/>
	<path class="st3" d="M282.3,109.6v-40h4.2c1,0,1.6,0.5,1.9,1.5l0.5,4.1c1.5-1.8,3.1-3.3,5-4.5c1.8-1.2,4-1.7,6.4-1.7
		c2.7,0,4.9,0.8,6.5,2.3c1.7,1.5,2.9,3.5,3.6,6.1c0.6-1.4,1.3-2.7,2.2-3.8c0.9-1.1,1.9-1.9,3.1-2.6c1.1-0.7,2.3-1.2,3.6-1.5
		s2.6-0.5,3.9-0.5c2.1,0,4,0.3,5.6,1c1.6,0.7,3,1.7,4.2,2.9c1.1,1.3,2,2.9,2.6,4.8c0.6,1.9,0.9,4,0.9,6.5v25.5h-7.1V84.1
		c0-3.1-0.7-5.5-2.1-7.1c-1.4-1.6-3.3-2.4-5.9-2.4c-1.2,0-2.3,0.2-3.3,0.6c-1,0.4-2,1-2.7,1.8s-1.4,1.8-1.9,3
		c-0.5,1.2-0.7,2.6-0.7,4.2v25.5h-7.1V84.1c0-3.2-0.6-5.6-1.9-7.2c-1.3-1.6-3.2-2.4-5.6-2.4c-1.7,0-3.3,0.5-4.8,1.4
		c-1.5,0.9-2.8,2.2-4.1,3.8v29.8H282.3z"/>
	<path class="st3" d="M355.1,75.3c1.7-1.9,3.6-3.5,5.7-4.7c2.1-1.2,4.6-1.7,7.3-1.7c2.3,0,4.5,0.4,6.3,1.3c1.9,0.9,3.5,2.2,4.8,3.9
		c1.3,1.7,2.3,3.8,3,6.2c0.7,2.4,1,5.1,1,8.2c0,3.2-0.4,6.2-1.2,8.8c-0.8,2.7-1.9,4.9-3.4,6.8c-1.5,1.9-3.3,3.3-5.4,4.4
		c-2.1,1-4.5,1.6-7.2,1.6c-2.6,0-4.9-0.5-6.7-1.5c-1.8-1-3.4-2.4-4.7-4.2l-0.4,3.6c-0.2,1-0.8,1.5-1.8,1.5H348V51.4h7.1V75.3z
		 M355.1,100c1.3,1.7,2.7,3,4.2,3.7s3.2,1.1,5.1,1.1c3.8,0,6.6-1.3,8.7-4c2-2.7,3-6.6,3-11.9c0-4.9-0.9-8.5-2.7-10.8
		s-4.3-3.5-7.6-3.5c-2.3,0-4.3,0.5-6,1.6c-1.7,1.1-3.3,2.5-4.7,4.5V100z"/>
	<path class="st3" d="M399.7,77.6c1.3-2.7,2.8-4.9,4.7-6.4s4.1-2.3,6.8-2.3c0.8,0,1.7,0.1,2.4,0.3c0.8,0.2,1.5,0.5,2.1,0.9l-0.5,5.3
		c-0.2,0.7-0.6,1-1.2,1c-0.4,0-0.9-0.1-1.6-0.2c-0.7-0.2-1.5-0.2-2.4-0.2c-1.3,0-2.4,0.2-3.4,0.6c-1,0.4-1.9,0.9-2.6,1.6
		c-0.8,0.7-1.5,1.6-2.1,2.7c-0.6,1.1-1.2,2.3-1.7,3.7v25.3h-7.1v-40h4c0.8,0,1.3,0.1,1.6,0.4c0.3,0.3,0.5,0.8,0.6,1.5L399.7,77.6z"
		/>
	<path class="st3" d="M455.5,69.6v40h-4.2c-1,0-1.6-0.5-1.9-1.5l-0.6-4.3c-1.7,1.9-3.7,3.5-5.8,4.6c-2.2,1.2-4.6,1.8-7.4,1.8
		c-2.2,0-4.1-0.4-5.8-1.1c-1.7-0.7-3.1-1.7-4.2-3.1c-1.1-1.3-2-2.9-2.5-4.8c-0.6-1.9-0.8-3.9-0.8-6.2V69.6h7v25.5c0,3,0.7,5.4,2.1,7
		c1.4,1.7,3.5,2.5,6.3,2.5c2.1,0,4-0.5,5.8-1.5c1.8-1,3.5-2.4,5-4.1V69.6H455.5z"/>
	<path class="st3" d="M467.5,109.6v-40h4.2c1,0,1.6,0.5,1.9,1.5l0.5,4.1c1.5-1.8,3.1-3.3,5-4.5c1.8-1.2,4-1.7,6.4-1.7
		c2.7,0,4.9,0.8,6.5,2.3c1.7,1.5,2.9,3.5,3.6,6.1c0.6-1.4,1.3-2.7,2.2-3.8c0.9-1.1,1.9-1.9,3.1-2.6c1.1-0.7,2.3-1.2,3.6-1.5
		s2.6-0.5,3.9-0.5c2.1,0,4,0.3,5.6,1s3,1.7,4.2,2.9c1.1,1.3,2,2.9,2.6,4.8s0.9,4,0.9,6.5v25.5h-7.1V84.1c0-3.1-0.7-5.5-2.1-7.1
		c-1.4-1.6-3.3-2.4-5.9-2.4c-1.2,0-2.3,0.2-3.3,0.6c-1,0.4-2,1-2.7,1.8c-0.8,0.8-1.4,1.8-1.9,3s-0.7,2.6-0.7,4.2v25.5H491V84.1
		c0-3.2-0.6-5.6-1.9-7.2s-3.2-2.4-5.6-2.4c-1.7,0-3.3,0.5-4.8,1.4c-1.5,0.9-2.8,2.2-4.1,3.8v29.8H467.5z"/>
</g>
</svg>
